<?xml version="1.0" encoding="utf-8"?>
<!-- Generator: Adobe Illustrator 26.0.2, SVG Export Plug-In . SVG Version: 6.00 Build 0)  -->
<svg version="1.1" id="Layer_1" xmlns="http://www.w3.org/2000/svg" xmlns:xlink="http://www.w3.org/1999/xlink" x="0px" y="0px"
	 viewBox="0 0 82 82" style="enable-background:new 0 0 82 82;" xml:space="preserve">
<style type="text/css">
	.st0{fill:#FFFFFF;stroke:#1969FF;}
	.st1{clip-path:url(#SVGID_00000021079815427362592360000016482319637992819375_);}
	.st2{fill:none;stroke:#1969FF;stroke-width:0.8571;}
	.st3{fill:#1969FF;}
</style>
<path class="st0" d="M41,81.5c22.4,0,40.5-18.1,40.5-40.5S63.4,0.5,41,0.5S0.5,18.6,0.5,41S18.6,81.5,41,81.5z"/>
<g>
	<defs>
		<rect id="SVGID_1_" x="54" y="26.8" width="18" height="29"/>
	</defs>
	<clipPath id="SVGID_00000012453998589692793430000006394715095401397945_">
		<use xlink:href="#SVGID_1_"  style="overflow:visible;"/>
	</clipPath>
	<g style="clip-path:url(#SVGID_00000012453998589692793430000006394715095401397945_);">
		<path class="st2" d="M55.3,55.6l16.3-27.4"/>
		<path class="st3" d="M60.4,30.1c0.7,0,1.3-0.6,1.3-1.3c0-0.7-0.6-1.3-1.3-1.3c-0.7,0-1.3,0.6-1.3,1.3
			C59.1,29.5,59.7,30.1,60.4,30.1z"/>
		<path class="st3" d="M68.1,55.8c0.7,0,1.3-0.6,1.3-1.3c0-0.7-0.6-1.3-1.3-1.3s-1.3,0.6-1.3,1.3C66.9,55.2,67.4,55.8,68.1,55.8z"/>
	</g>
</g>
<path class="st2" d="M29.8,53.5c0.3,0.3,2.1,2.1,5.1,2.3c3,0.2,5.1-1.5,5.7-2.1c3.5-2.9,2.5-7.1,2.2-8c-0.4-1.9-1.4-3.3-2.1-4.1
	c-0.2-0.2-2.6-2.8-6.6-2.7c-2.2,0.1-3.8,1-4.3,1.4c0-3.4,0-6.8,0-10.2c0-1,0-2,0-3c2-0.1,3.8-0.1,5.3-0.2c1.2,0,2.3,0,3.5,0
	c1.1,0,2.2,0,3.1,0"/>
<path class="st2" d="M10.1,35.3c-0.4-5.1,3.5-8.7,6.7-8.5c3.2,0.2,6.7,4.3,5.7,9.3c-2.1,1.2-9.9,5.9-11.7,14.6
	c-0.4,1.8-0.4,3.5-0.3,5c4.3,0,8.6-0.1,12.8-0.1"/>
<circle class="st2" cx="26.5" cy="56.2" r="0.4"/>
</svg>
